<svg xmlns="http://www.w3.org/2000/svg" width="1440" height="900" viewBox="0 0 1440 900">
  <defs>
    <style>
      @import url('https://fonts.googleapis.com/css2?family=Roboto:wght@300;400;500&amp;display=swap');
      text { font-family: 'Roboto', sans-serif; }
    </style>
    <filter id="shadow" x="-5%" y="-5%" width="110%" height="115%">
      <feDropShadow dx="0" dy="2" stdDeviation="4" flood-color="#000" flood-opacity="0.12"/>
    </filter>
  </defs>

  <!-- Page label -->
  <rect x="0" y="0" width="1440" height="40" fill="#1976d2"/>
  <text x="720" y="26" text-anchor="middle" font-size="14" font-weight="500" fill="#ffffff">02 - Dashboard (Medewerker)</text>

  <!-- Top Toolbar -->
  <rect x="0" y="40" width="1440" height="56" fill="#1976d2"/>
  <text x="264" y="74" font-size="18" font-weight="500" fill="#ffffff">RDS - Reisburo Dashboard</text>
  <text x="1280" y="74" font-size="14" fill="#ffffffcc">jan.vanbergen</text>
  <!-- Logout icon -->
  <rect x="1380" y="56" width="28" height="24" rx="4" fill="none" stroke="#ffffffcc" stroke-width="1.5"/>
  <path d="M1389 64 l8 4 -8 4" fill="none" stroke="#ffffffcc" stroke-width="1.5"/>

  <!-- Sidebar -->
  <rect x="0" y="96" width="240" height="804" fill="#fafafa"/>
  <line x1="240" y1="96" x2="240" y2="900" stroke="#e0e0e0" stroke-width="1"/>

  <!-- Sidebar header -->
  <rect x="0" y="96" width="240" height="56" fill="#f5f5f5"/>
  <text x="120" y="130" text-anchor="middle" font-size="20" font-weight="500" fill="#1976d2">RDS</text>

  <!-- Nav items -->
  <!-- Active: Dashboard -->
  <rect x="0" y="152" width="240" height="48" fill="#e3f2fd"/>
  <rect x="0" y="152" width="4" height="48" fill="#1976d2"/>
  <text x="56" y="182" font-size="14" font-weight="500" fill="#1976d2">Dashboard</text>
  <rect x="16" y="166" width="20" height="20" rx="2" fill="none" stroke="#1976d2" stroke-width="1.5"/>

  <!-- Boekingen -->
  <rect x="0" y="200" width="240" height="48" fill="transparent"/>
  <text x="56" y="230" font-size="14" fill="#424242">Boekingen</text>
  <rect x="16" y="214" width="20" height="20" rx="2" fill="none" stroke="#757575" stroke-width="1.5"/>

  <!-- Bookers -->
  <text x="56" y="278" font-size="14" fill="#424242">Bookers</text>
  <circle cx="26" cy="274" r="10" fill="none" stroke="#757575" stroke-width="1.5"/>

  <!-- Reizigers -->
  <text x="56" y="326" font-size="14" fill="#424242">Reizigers</text>

  <!-- Accommodaties -->
  <text x="56" y="374" font-size="14" fill="#424242">Accommodaties</text>

  <!-- Leveranciers -->
  <text x="56" y="422" font-size="14" fill="#424242">Leveranciers</text>

  <!-- Documenten -->
  <text x="56" y="470" font-size="14" fill="#424242">Documenten</text>

  <!-- Divider -->
  <line x1="16" y1="494" x2="224" y2="494" stroke="#e0e0e0" stroke-width="1"/>

  <!-- Admin section -->
  <text x="16" y="520" font-size="11" font-weight="500" fill="#9e9e9e">BEHEER</text>
  <text x="56" y="550" font-size="14" fill="#424242">Organisaties</text>
  <text x="56" y="598" font-size="14" fill="#424242">Personen</text>
  <text x="56" y="646" font-size="14" fill="#424242">Accounts</text>
  <text x="56" y="694" font-size="14" fill="#424242">Rollen</text>

  <!-- Main Content Area -->
  <rect x="240" y="96" width="1200" height="804" fill="#fafafa"/>

  <!-- Welcome card -->
  <rect x="280" y="130" width="520" height="180" rx="8" fill="#ffffff" filter="url(#shadow)"/>
  <text x="310" y="170" font-size="20" font-weight="500" fill="#333">Welkom, Jan van Bergen</text>
  <text x="310" y="200" font-size="14" fill="#666">Rol: ADMIN</text>
  <text x="310" y="224" font-size="14" fill="#666">Organisatie: Puurkroatie</text>
  <text x="310" y="248" font-size="12" fill="#999">Account ID: a1b2c3d4-...</text>
  <text x="310" y="272" font-size="12" fill="#999">Ingelogd op: 27 mrt 2026, 10:30</text>

  <!-- Stats cards row -->
  <rect x="280" y="340" width="240" height="120" rx="8" fill="#ffffff" filter="url(#shadow)"/>
  <text x="310" y="380" font-size="13" fill="#666">Actieve boekingen</text>
  <text x="310" y="420" font-size="36" font-weight="300" fill="#1976d2">24</text>

  <rect x="540" y="340" width="240" height="120" rx="8" fill="#ffffff" filter="url(#shadow)"/>
  <text x="570" y="380" font-size="13" fill="#666">Boekingen deze maand</text>
  <text x="570" y="420" font-size="36" font-weight="300" fill="#4caf50">8</text>

  <rect x="800" y="340" width="240" height="120" rx="8" fill="#ffffff" filter="url(#shadow)"/>
  <text x="830" y="380" font-size="13" fill="#666">Openstaande betalingen</text>
  <text x="830" y="420" font-size="36" font-weight="300" fill="#ff9800">3</text>

  <rect x="1060" y="340" width="340" height="120" rx="8" fill="#ffffff" filter="url(#shadow)"/>
  <text x="1090" y="380" font-size="13" fill="#666">Totale omzet deze maand</text>
  <text x="1090" y="420" font-size="36" font-weight="300" fill="#333">€ 15.420</text>

  <!-- Recent bookings card -->
  <rect x="280" y="490" width="1120" height="360" rx="8" fill="#ffffff" filter="url(#shadow)"/>
  <text x="310" y="530" font-size="16" font-weight="500" fill="#333">Recente boekingen</text>

  <!-- Table header -->
  <rect x="280" y="545" width="1120" height="36" fill="#fafafa"/>
  <text x="310" y="568" font-size="12" font-weight="500" fill="#666">BOEKINGNR</text>
  <text x="480" y="568" font-size="12" font-weight="500" fill="#666">BOOKER</text>
  <text x="700" y="568" font-size="12" font-weight="500" fill="#666">VAN</text>
  <text x="850" y="568" font-size="12" font-weight="500" fill="#666">TOT</text>
  <text x="1000" y="568" font-size="12" font-weight="500" fill="#666">BEDRAG</text>
  <text x="1150" y="568" font-size="12" font-weight="500" fill="#666">STATUS</text>

  <!-- Table rows -->
  <line x1="280" y1="581" x2="1400" y2="581" stroke="#e0e0e0" stroke-width="1"/>
  <text x="310" y="608" font-size="13" fill="#333">BK-2026-001</text>
  <text x="480" y="608" font-size="13" fill="#333">Klaas de Boer</text>
  <text x="700" y="608" font-size="13" fill="#333">15 apr 2026</text>
  <text x="850" y="608" font-size="13" fill="#333">22 apr 2026</text>
  <text x="1000" y="608" font-size="13" fill="#333">€ 2.450,00</text>
  <rect x="1150" y="594" width="80" height="22" rx="11" fill="#e8f5e9"/>
  <text x="1165" y="610" font-size="11" fill="#2e7d32">Bevestigd</text>

  <line x1="280" y1="621" x2="1400" y2="621" stroke="#f5f5f5" stroke-width="1"/>
  <text x="310" y="648" font-size="13" fill="#333">BK-2026-002</text>
  <text x="480" y="648" font-size="13" fill="#333">Anna Visser</text>
  <text x="700" y="648" font-size="13" fill="#333">01 mei 2026</text>
  <text x="850" y="648" font-size="13" fill="#333">14 mei 2026</text>
  <text x="1000" y="648" font-size="13" fill="#333">€ 3.890,00</text>
  <rect x="1150" y="634" width="80" height="22" rx="11" fill="#fff3e0"/>
  <text x="1162" y="650" font-size="11" fill="#e65100">In concept</text>

  <line x1="280" y1="661" x2="1400" y2="661" stroke="#f5f5f5" stroke-width="1"/>
  <text x="310" y="688" font-size="13" fill="#333">BK-2026-003</text>
  <text x="480" y="688" font-size="13" fill="#333">Piet Mulder</text>
  <text x="700" y="688" font-size="13" fill="#333">10 jun 2026</text>
  <text x="850" y="688" font-size="13" fill="#333">24 jun 2026</text>
  <text x="1000" y="688" font-size="13" fill="#333">€ 5.120,00</text>
  <rect x="1150" y="674" width="80" height="22" rx="11" fill="#e3f2fd"/>
  <text x="1165" y="690" font-size="11" fill="#1565c0">Betaald</text>

  <line x1="280" y1="701" x2="1400" y2="701" stroke="#f5f5f5" stroke-width="1"/>
  <text x="310" y="728" font-size="13" fill="#333">BK-2026-004</text>
  <text x="480" y="728" font-size="13" fill="#333">Sara Bakker</text>
  <text x="700" y="728" font-size="13" fill="#333">20 jul 2026</text>
  <text x="850" y="728" font-size="13" fill="#333">03 aug 2026</text>
  <text x="1000" y="728" font-size="13" fill="#333">€ 1.960,00</text>
  <rect x="1150" y="714" width="80" height="22" rx="11" fill="#fff3e0"/>
  <text x="1162" y="730" font-size="11" fill="#e65100">In concept</text>
</svg>