<svg xmlns="http://www.w3.org/2000/svg" width="1440" height="900" viewBox="0 0 1440 900">
  <defs>
    <style>
      @import url('https://fonts.googleapis.com/css2?family=Roboto:wght@300;400;500&amp;display=swap');
      text { font-family: 'Roboto', sans-serif; }
    </style>
    <filter id="shadow" x="-5%" y="-5%" width="110%" height="115%">
      <feDropShadow dx="0" dy="2" stdDeviation="4" flood-color="#000" flood-opacity="0.12"/>
    </filter>
  </defs>

  <!-- Page label -->
  <rect x="0" y="0" width="1440" height="40" fill="#1976d2"/>
  <text x="720" y="26" text-anchor="middle" font-size="14" font-weight="500" fill="#ffffff">03 - Boekingenlijst</text>

  <!-- Top Toolbar -->
  <rect x="0" y="40" width="1440" height="56" fill="#1976d2"/>
  <text x="264" y="74" font-size="18" font-weight="500" fill="#ffffff">RDS - Reisburo Dashboard</text>
  <text x="1280" y="74" font-size="14" fill="#ffffffcc">jan.vanbergen</text>
  <rect x="1380" y="56" width="28" height="24" rx="4" fill="none" stroke="#ffffffcc" stroke-width="1.5"/>

  <!-- Sidebar -->
  <rect x="0" y="96" width="240" height="804" fill="#fafafa"/>
  <line x1="240" y1="96" x2="240" y2="900" stroke="#e0e0e0" stroke-width="1"/>
  <rect x="0" y="96" width="240" height="56" fill="#f5f5f5"/>
  <text x="120" y="130" text-anchor="middle" font-size="20" font-weight="500" fill="#1976d2">RDS</text>

  <!-- Nav: Dashboard -->
  <text x="56" y="182" font-size="14" fill="#424242">Dashboard</text>

  <!-- Nav: Boekingen (active) -->
  <rect x="0" y="200" width="240" height="48" fill="#e3f2fd"/>
  <rect x="0" y="200" width="4" height="48" fill="#1976d2"/>
  <text x="56" y="230" font-size="14" font-weight="500" fill="#1976d2">Boekingen</text>

  <text x="56" y="278" font-size="14" fill="#424242">Bookers</text>
  <text x="56" y="326" font-size="14" fill="#424242">Reizigers</text>
  <text x="56" y="374" font-size="14" fill="#424242">Accommodaties</text>
  <text x="56" y="422" font-size="14" fill="#424242">Leveranciers</text>
  <text x="56" y="470" font-size="14" fill="#424242">Documenten</text>
  <line x1="16" y1="494" x2="224" y2="494" stroke="#e0e0e0" stroke-width="1"/>
  <text x="16" y="520" font-size="11" font-weight="500" fill="#9e9e9e">BEHEER</text>
  <text x="56" y="550" font-size="14" fill="#424242">Organisaties</text>
  <text x="56" y="598" font-size="14" fill="#424242">Personen</text>
  <text x="56" y="646" font-size="14" fill="#424242">Accounts</text>
  <text x="56" y="694" font-size="14" fill="#424242">Rollen</text>

  <!-- Main Content -->
  <rect x="240" y="96" width="1200" height="804" fill="#fafafa"/>

  <!-- Header row -->
  <text x="280" y="140" font-size="22" font-weight="500" fill="#333">Boekingen</text>
  <rect x="1240" y="116" width="140" height="40" rx="4" fill="#1976d2"/>
  <text x="1310" y="142" text-anchor="middle" font-size="14" font-weight="500" fill="#ffffff">+ NIEUWE BOEKING</text>

  <!-- Search bar -->
  <rect x="280" y="162" width="400" height="44" rx="4" fill="#ffffff" stroke="#bdbdbd" stroke-width="1"/>
  <text x="320" y="190" font-size="14" fill="#999">Zoeken...</text>
  <!-- Search icon -->
  <circle cx="300" cy="184" r="7" fill="none" stroke="#9e9e9e" stroke-width="1.5"/>
  <line x1="305" y1="189" x2="310" y2="194" stroke="#9e9e9e" stroke-width="1.5"/>

  <!-- Table card -->
  <rect x="280" y="220" width="1100" height="600" rx="8" fill="#ffffff" filter="url(#shadow)"/>

  <!-- Table header -->
  <rect x="280" y="220" width="1100" height="42" rx="8" fill="#fafafa"/>
  <rect x="280" y="252" width="1100" height="10" fill="#fafafa"/>
  <text x="310" y="248" font-size="12" font-weight="500" fill="#666">BOEKINGNR ↕</text>
  <text x="470" y="248" font-size="12" font-weight="500" fill="#666">BOOKER</text>
  <text x="660" y="248" font-size="12" font-weight="500" fill="#666">VAN ↕</text>
  <text x="800" y="248" font-size="12" font-weight="500" fill="#666">TOT ↕</text>
  <text x="940" y="248" font-size="12" font-weight="500" fill="#666">BEDRAG ↕</text>
  <text x="1080" y="248" font-size="12" font-weight="500" fill="#666">STATUS</text>
  <text x="1240" y="248" font-size="12" font-weight="500" fill="#666">ACTIES</text>

  <!-- Row 1 -->
  <line x1="280" y1="262" x2="1380" y2="262" stroke="#e0e0e0" stroke-width="1"/>
  <text x="310" y="290" font-size="13" fill="#333">BK-2026-001</text>
  <text x="470" y="290" font-size="13" fill="#333">Klaas de Boer</text>
  <text x="660" y="290" font-size="13" fill="#333">15-04-2026</text>
  <text x="800" y="290" font-size="13" fill="#333">22-04-2026</text>
  <text x="940" y="290" font-size="13" fill="#333">€ 2.450,00</text>
  <rect x="1080" y="276" width="80" height="22" rx="11" fill="#e8f5e9"/>
  <text x="1095" y="292" font-size="11" fill="#2e7d32">Bevestigd</text>
  <!-- Edit icon -->
  <rect x="1250" y="276" width="28" height="28" rx="14" fill="none"/>
  <text x="1258" y="296" font-size="16" fill="#1976d2">✎</text>

  <!-- Row 2 -->
  <line x1="280" y1="302" x2="1380" y2="302" stroke="#f5f5f5" stroke-width="1"/>
  <rect x="280" y="302" width="1100" height="40" fill="#fafafa" opacity="0.5"/>
  <text x="310" y="330" font-size="13" fill="#333">BK-2026-002</text>
  <text x="470" y="330" font-size="13" fill="#333">Anna Visser</text>
  <text x="660" y="330" font-size="13" fill="#333">01-05-2026</text>
  <text x="800" y="330" font-size="13" fill="#333">14-05-2026</text>
  <text x="940" y="330" font-size="13" fill="#333">€ 3.890,00</text>
  <rect x="1080" y="316" width="80" height="22" rx="11" fill="#fff3e0"/>
  <text x="1092" y="332" font-size="11" fill="#e65100">In concept</text>
  <text x="1258" y="336" font-size="16" fill="#1976d2">✎</text>

  <!-- Row 3 -->
  <line x1="280" y1="342" x2="1380" y2="342" stroke="#f5f5f5" stroke-width="1"/>
  <text x="310" y="370" font-size="13" fill="#333">BK-2026-003</text>
  <text x="470" y="370" font-size="13" fill="#333">Piet Mulder</text>
  <text x="660" y="370" font-size="13" fill="#333">10-06-2026</text>
  <text x="800" y="370" font-size="13" fill="#333">24-06-2026</text>
  <text x="940" y="370" font-size="13" fill="#333">€ 5.120,00</text>
  <rect x="1080" y="356" width="80" height="22" rx="11" fill="#e3f2fd"/>
  <text x="1098" y="372" font-size="11" fill="#1565c0">Betaald</text>
  <text x="1258" y="376" font-size="16" fill="#1976d2">✎</text>

  <!-- Row 4 -->
  <line x1="280" y1="382" x2="1380" y2="382" stroke="#f5f5f5" stroke-width="1"/>
  <rect x="280" y="382" width="1100" height="40" fill="#fafafa" opacity="0.5"/>
  <text x="310" y="410" font-size="13" fill="#333">BK-2026-004</text>
  <text x="470" y="410" font-size="13" fill="#333">Sara Bakker</text>
  <text x="660" y="410" font-size="13" fill="#333">20-07-2026</text>
  <text x="800" y="410" font-size="13" fill="#333">03-08-2026</text>
  <text x="940" y="410" font-size="13" fill="#333">€ 1.960,00</text>
  <rect x="1080" y="396" width="100" height="22" rx="11" fill="#fce4ec"/>
  <text x="1092" y="412" font-size="11" fill="#c62828">Geannuleerd</text>
  <text x="1258" y="416" font-size="16" fill="#1976d2">✎</text>

  <!-- Row 5 -->
  <line x1="280" y1="422" x2="1380" y2="422" stroke="#f5f5f5" stroke-width="1"/>
  <text x="310" y="450" font-size="13" fill="#333">BK-2026-005</text>
  <text x="470" y="450" font-size="13" fill="#333">Hans Smit</text>
  <text x="660" y="450" font-size="13" fill="#333">05-08-2026</text>
  <text x="800" y="450" font-size="13" fill="#333">19-08-2026</text>
  <text x="940" y="450" font-size="13" fill="#333">€ 4.275,00</text>
  <rect x="1080" y="436" width="100" height="22" rx="11" fill="#e8f5e9"/>
  <text x="1095" y="452" font-size="11" fill="#2e7d32">Bevestigd</text>
  <text x="1258" y="456" font-size="16" fill="#1976d2">✎</text>

  <!-- Row 6 -->
  <line x1="280" y1="462" x2="1380" y2="462" stroke="#f5f5f5" stroke-width="1"/>
  <rect x="280" y="462" width="1100" height="40" fill="#fafafa" opacity="0.5"/>
  <text x="310" y="490" font-size="13" fill="#333">BK-2026-006</text>
  <text x="470" y="490" font-size="13" fill="#333">Linda Vos</text>
  <text x="660" y="490" font-size="13" fill="#333">12-09-2026</text>
  <text x="800" y="490" font-size="13" fill="#333">26-09-2026</text>
  <text x="940" y="490" font-size="13" fill="#333">€ 6.340,00</text>
  <rect x="1080" y="476" width="100" height="22" rx="11" fill="#fff3e0"/>
  <text x="1092" y="492" font-size="11" fill="#e65100">In concept</text>
  <text x="1258" y="496" font-size="16" fill="#1976d2">✎</text>

  <!-- More rows indicator -->
  <line x1="280" y1="502" x2="1380" y2="502" stroke="#f5f5f5" stroke-width="1"/>
  <text x="310" y="530" font-size="13" fill="#999">...</text>

  <!-- Pagination -->
  <line x1="280" y1="775" x2="1380" y2="775" stroke="#e0e0e0" stroke-width="1"/>
  <text x="310" y="802" font-size="12" fill="#666">Rijen per pagina:</text>
  <rect x="420" y="786" width="50" height="24" rx="4" fill="#ffffff" stroke="#bdbdbd" stroke-width="1"/>
  <text x="438" y="803" font-size="12" fill="#333">10 ▾</text>
  <text x="900" y="802" font-size="12" fill="#666">1 – 10 van 24</text>
  <!-- Pagination arrows -->
  <text x="1010" y="804" font-size="18" fill="#bdbdbd">‹</text>
  <text x="1040" y="804" font-size="18" fill="#333">›</text>
</svg>