<svg xmlns="http://www.w3.org/2000/svg" width="1440" height="900" viewBox="0 0 1440 900">
  <defs>
    <style>
      @import url('https://fonts.googleapis.com/css2?family=Roboto:wght@300;400;500&amp;display=swap');
      text { font-family: 'Roboto', sans-serif; }
    </style>
    <filter id="shadow" x="-5%" y="-5%" width="110%" height="115%">
      <feDropShadow dx="0" dy="2" stdDeviation="4" flood-color="#000" flood-opacity="0.12"/>
    </filter>
  </defs>

  <!-- Page label -->
  <rect x="0" y="0" width="1440" height="40" fill="#1976d2"/>
  <text x="720" y="26" text-anchor="middle" font-size="14" font-weight="500" fill="#ffffff">05 - Bookers (Hoofdboekers)</text>

  <!-- Top Toolbar -->
  <rect x="0" y="40" width="1440" height="56" fill="#1976d2"/>
  <text x="264" y="74" font-size="18" font-weight="500" fill="#ffffff">RDS - Reisburo Dashboard</text>
  <text x="1280" y="74" font-size="14" fill="#ffffffcc">jan.vanbergen</text>

  <!-- Sidebar -->
  <rect x="0" y="96" width="240" height="804" fill="#fafafa"/>
  <line x1="240" y1="96" x2="240" y2="900" stroke="#e0e0e0" stroke-width="1"/>
  <rect x="0" y="96" width="240" height="56" fill="#f5f5f5"/>
  <text x="120" y="130" text-anchor="middle" font-size="20" font-weight="500" fill="#1976d2">RDS</text>
  <text x="56" y="182" font-size="14" fill="#424242">Dashboard</text>
  <text x="56" y="230" font-size="14" fill="#424242">Boekingen</text>
  <!-- Bookers active -->
  <rect x="0" y="248" width="240" height="48" fill="#e3f2fd"/>
  <rect x="0" y="248" width="4" height="48" fill="#1976d2"/>
  <text x="56" y="278" font-size="14" font-weight="500" fill="#1976d2">Bookers</text>
  <text x="56" y="326" font-size="14" fill="#424242">Reizigers</text>
  <text x="56" y="374" font-size="14" fill="#424242">Accommodaties</text>
  <text x="56" y="422" font-size="14" fill="#424242">Leveranciers</text>
  <text x="56" y="470" font-size="14" fill="#424242">Documenten</text>

  <!-- Main Content -->
  <rect x="240" y="96" width="1200" height="804" fill="#fafafa"/>

  <!-- Header -->
  <text x="280" y="140" font-size="22" font-weight="500" fill="#333">Bookers</text>

  <!-- Search -->
  <rect x="280" y="162" width="400" height="44" rx="4" fill="#ffffff" stroke="#bdbdbd" stroke-width="1"/>
  <circle cx="300" cy="184" r="7" fill="none" stroke="#9e9e9e" stroke-width="1.5"/>
  <line x1="305" y1="189" x2="310" y2="194" stroke="#9e9e9e" stroke-width="1.5"/>
  <text x="320" y="190" font-size="14" fill="#999">Zoek op naam, e-mail of telefoon...</text>

  <!-- Table card -->
  <rect x="280" y="220" width="1100" height="560" rx="8" fill="#ffffff" filter="url(#shadow)"/>

  <!-- Table header -->
  <rect x="280" y="220" width="1100" height="42" rx="8" fill="#fafafa"/>
  <rect x="280" y="252" width="1100" height="10" fill="#fafafa"/>
  <text x="310" y="248" font-size="12" font-weight="500" fill="#666">NAAM</text>
  <text x="510" y="248" font-size="12" font-weight="500" fill="#666">E-MAIL</text>
  <text x="730" y="248" font-size="12" font-weight="500" fill="#666">TELEFOON</text>
  <text x="900" y="248" font-size="12" font-weight="500" fill="#666">GEBOORTEDATUM</text>
  <text x="1080" y="248" font-size="12" font-weight="500" fill="#666">BOEKINGEN</text>
  <text x="1240" y="248" font-size="12" font-weight="500" fill="#666">ACTIES</text>

  <!-- Rows -->
  <line x1="280" y1="262" x2="1380" y2="262" stroke="#e0e0e0" stroke-width="1"/>
  <text x="310" y="290" font-size="13" fill="#333">Klaas de Boer</text>
  <text x="510" y="290" font-size="13" fill="#1976d2">klaas@example.com</text>
  <text x="730" y="290" font-size="13" fill="#333">06-12345678</text>
  <text x="900" y="290" font-size="13" fill="#333">15-03-1985</text>
  <rect x="1100" y="276" width="28" height="22" rx="11" fill="#e3f2fd"/>
  <text x="1110" y="292" font-size="12" fill="#1565c0">2</text>
  <text x="1250" y="292" font-size="14" fill="#1976d2">👁 ✎</text>

  <line x1="280" y1="302" x2="1380" y2="302" stroke="#f5f5f5" stroke-width="1"/>
  <rect x="280" y="302" width="1100" height="40" fill="#fafafa" opacity="0.5"/>
  <text x="310" y="330" font-size="13" fill="#333">Anna Visser</text>
  <text x="510" y="330" font-size="13" fill="#1976d2">anna.visser@mail.nl</text>
  <text x="730" y="330" font-size="13" fill="#333">06-98765432</text>
  <text x="900" y="330" font-size="13" fill="#333">08-11-1990</text>
  <rect x="1100" y="316" width="28" height="22" rx="11" fill="#e3f2fd"/>
  <text x="1110" y="332" font-size="12" fill="#1565c0">1</text>
  <text x="1250" y="332" font-size="14" fill="#1976d2">👁 ✎</text>

  <line x1="280" y1="342" x2="1380" y2="342" stroke="#f5f5f5" stroke-width="1"/>
  <text x="310" y="370" font-size="13" fill="#333">Piet Mulder</text>
  <text x="510" y="370" font-size="13" fill="#1976d2">p.mulder@work.com</text>
  <text x="730" y="370" font-size="13" fill="#333">06-11223344</text>
  <text x="900" y="370" font-size="13" fill="#333">22-06-1978</text>
  <rect x="1100" y="356" width="28" height="22" rx="11" fill="#e3f2fd"/>
  <text x="1110" y="372" font-size="12" fill="#1565c0">3</text>
  <text x="1250" y="372" font-size="14" fill="#1976d2">👁 ✎</text>

  <line x1="280" y1="382" x2="1380" y2="382" stroke="#f5f5f5" stroke-width="1"/>
  <rect x="280" y="382" width="1100" height="40" fill="#fafafa" opacity="0.5"/>
  <text x="310" y="410" font-size="13" fill="#333">Sara Bakker</text>
  <text x="510" y="410" font-size="13" fill="#1976d2">sara.b@gmail.com</text>
  <text x="730" y="410" font-size="13" fill="#333">06-55667788</text>
  <text x="900" y="410" font-size="13" fill="#333">30-01-1995</text>
  <rect x="1100" y="396" width="28" height="22" rx="11" fill="#e3f2fd"/>
  <text x="1110" y="412" font-size="12" fill="#1565c0">1</text>
  <text x="1250" y="412" font-size="14" fill="#1976d2">👁 ✎</text>

  <!-- Pagination -->
  <line x1="280" y1="735" x2="1380" y2="735" stroke="#e0e0e0" stroke-width="1"/>
  <text x="310" y="762" font-size="12" fill="#666">Rijen per pagina:</text>
  <rect x="420" y="746" width="50" height="24" rx="4" fill="#ffffff" stroke="#bdbdbd" stroke-width="1"/>
  <text x="438" y="763" font-size="12" fill="#333">10 ▾</text>
  <text x="900" y="762" font-size="12" fill="#666">1 – 4 van 4</text>
</svg>