<svg xmlns="http://www.w3.org/2000/svg" width="1440" height="900" viewBox="0 0 1440 900">
  <defs>
    <style>
      @import url('https://fonts.googleapis.com/css2?family=Roboto:wght@300;400;500&amp;display=swap');
      text { font-family: 'Roboto', sans-serif; }
    </style>
    <filter id="shadow" x="-5%" y="-5%" width="110%" height="115%">
      <feDropShadow dx="0" dy="2" stdDeviation="4" flood-color="#000" flood-opacity="0.12"/>
    </filter>
  </defs>

  <!-- Page label -->
  <rect x="0" y="0" width="1440" height="40" fill="#1976d2"/>
  <text x="720" y="26" text-anchor="middle" font-size="14" font-weight="500" fill="#ffffff">06 - Beheer: Accounts (ADMIN/MANAGER)</text>

  <!-- Top Toolbar -->
  <rect x="0" y="40" width="1440" height="56" fill="#1976d2"/>
  <text x="264" y="74" font-size="18" font-weight="500" fill="#ffffff">RDS - Reisburo Dashboard</text>
  <text x="1280" y="74" font-size="14" fill="#ffffffcc">jan.vanbergen</text>

  <!-- Sidebar -->
  <rect x="0" y="96" width="240" height="804" fill="#fafafa"/>
  <line x1="240" y1="96" x2="240" y2="900" stroke="#e0e0e0" stroke-width="1"/>
  <rect x="0" y="96" width="240" height="56" fill="#f5f5f5"/>
  <text x="120" y="130" text-anchor="middle" font-size="20" font-weight="500" fill="#1976d2">RDS</text>
  <text x="56" y="182" font-size="14" fill="#424242">Dashboard</text>
  <text x="56" y="230" font-size="14" fill="#424242">Boekingen</text>
  <text x="56" y="278" font-size="14" fill="#424242">Bookers</text>
  <text x="56" y="326" font-size="14" fill="#424242">Reizigers</text>
  <text x="56" y="374" font-size="14" fill="#424242">Accommodaties</text>
  <text x="56" y="422" font-size="14" fill="#424242">Leveranciers</text>
  <text x="56" y="470" font-size="14" fill="#424242">Documenten</text>
  <line x1="16" y1="494" x2="224" y2="494" stroke="#e0e0e0" stroke-width="1"/>
  <text x="16" y="520" font-size="11" font-weight="500" fill="#9e9e9e">BEHEER</text>
  <text x="56" y="550" font-size="14" fill="#424242">Organisaties</text>
  <text x="56" y="598" font-size="14" fill="#424242">Personen</text>
  <!-- Accounts active -->
  <rect x="0" y="620" width="240" height="48" fill="#e3f2fd"/>
  <rect x="0" y="620" width="4" height="48" fill="#1976d2"/>
  <text x="56" y="650" font-size="14" font-weight="500" fill="#1976d2">Accounts</text>
  <text x="56" y="698" font-size="14" fill="#424242">Rollen</text>

  <!-- Main Content -->
  <rect x="240" y="96" width="1200" height="804" fill="#fafafa"/>

  <!-- Header -->
  <text x="280" y="140" font-size="22" font-weight="500" fill="#333">Accounts</text>
  <rect x="1240" y="116" width="140" height="40" rx="4" fill="#1976d2"/>
  <text x="1310" y="142" text-anchor="middle" font-size="14" font-weight="500" fill="#ffffff">+ NIEUW ACCOUNT</text>

  <!-- Search + Filter -->
  <rect x="280" y="162" width="400" height="44" rx="4" fill="#ffffff" stroke="#bdbdbd" stroke-width="1"/>
  <text x="320" y="190" font-size="14" fill="#999">Zoek op gebruikersnaam...</text>

  <!-- Filter chips -->
  <rect x="700" y="166" width="80" height="32" rx="16" fill="#e3f2fd" stroke="#1976d2" stroke-width="1"/>
  <text x="720" y="187" font-size="12" fill="#1976d2">ADMIN</text>
  <rect x="790" y="166" width="100" height="32" rx="16" fill="#ffffff" stroke="#bdbdbd" stroke-width="1"/>
  <text x="812" y="187" font-size="12" fill="#666">MANAGER</text>
  <rect x="900" y="166" width="100" height="32" rx="16" fill="#ffffff" stroke="#bdbdbd" stroke-width="1"/>
  <text x="918" y="187" font-size="12" fill="#666">EMPLOYEE</text>

  <!-- Table card -->
  <rect x="280" y="220" width="1100" height="560" rx="8" fill="#ffffff" filter="url(#shadow)"/>

  <!-- Table header -->
  <rect x="280" y="220" width="1100" height="42" rx="8" fill="#fafafa"/>
  <rect x="280" y="252" width="1100" height="10" fill="#fafafa"/>
  <text x="310" y="248" font-size="12" font-weight="500" fill="#666">GEBRUIKERSNAAM</text>
  <text x="510" y="248" font-size="12" font-weight="500" fill="#666">PERSOON</text>
  <text x="710" y="248" font-size="12" font-weight="500" fill="#666">ORGANISATIE</text>
  <text x="900" y="248" font-size="12" font-weight="500" fill="#666">ROLLEN</text>
  <text x="1060" y="248" font-size="12" font-weight="500" fill="#666">STATUS</text>
  <text x="1200" y="248" font-size="12" font-weight="500" fill="#666">ACTIES</text>

  <!-- Row 1 -->
  <line x1="280" y1="262" x2="1380" y2="262" stroke="#e0e0e0" stroke-width="1"/>
  <text x="310" y="290" font-size="13" fill="#333">jan.vanbergen</text>
  <text x="510" y="290" font-size="13" fill="#333">Jan van Bergen</text>
  <text x="710" y="290" font-size="13" fill="#333">Puurkroatie</text>
  <rect x="900" y="276" width="60" height="22" rx="11" fill="#e8eaf6"/>
  <text x="912" y="292" font-size="11" fill="#283593">ADMIN</text>
  <rect x="1060" y="276" width="60" height="22" rx="11" fill="#e8f5e9"/>
  <text x="1074" y="292" font-size="11" fill="#2e7d32">Actief</text>
  <text x="1210" y="292" font-size="14" fill="#1976d2">✎ 🔑 🗑</text>

  <!-- Row 2 -->
  <line x1="280" y1="302" x2="1380" y2="302" stroke="#f5f5f5" stroke-width="1"/>
  <rect x="280" y="302" width="1100" height="40" fill="#fafafa" opacity="0.5"/>
  <text x="310" y="330" font-size="13" fill="#333">maria.jansen</text>
  <text x="510" y="330" font-size="13" fill="#333">Maria Jansen</text>
  <text x="710" y="330" font-size="13" fill="#333">Puurkroatie</text>
  <rect x="900" y="316" width="88" height="22" rx="11" fill="#fff3e0"/>
  <text x="908" y="332" font-size="11" fill="#e65100">EMPLOYEE</text>
  <rect x="1060" y="316" width="60" height="22" rx="11" fill="#e8f5e9"/>
  <text x="1074" y="332" font-size="11" fill="#2e7d32">Actief</text>
  <text x="1210" y="332" font-size="14" fill="#1976d2">✎ 🔑 🗑</text>

  <!-- Row 3 -->
  <line x1="280" y1="342" x2="1380" y2="342" stroke="#f5f5f5" stroke-width="1"/>
  <text x="310" y="370" font-size="13" fill="#333">pieter.degroot</text>
  <text x="510" y="370" font-size="13" fill="#333">Pieter de Groot</text>
  <text x="710" y="370" font-size="13" fill="#333">TechPartner BV</text>
  <rect x="900" y="356" width="88" height="22" rx="11" fill="#e0f2f1"/>
  <text x="910" y="372" font-size="11" fill="#00695c">MANAGER</text>
  <rect x="1060" y="356" width="60" height="22" rx="11" fill="#e8f5e9"/>
  <text x="1074" y="372" font-size="11" fill="#2e7d32">Actief</text>
  <text x="1210" y="372" font-size="14" fill="#1976d2">✎ 🔑 🗑</text>

  <!-- Row 4 - locked account -->
  <line x1="280" y1="382" x2="1380" y2="382" stroke="#f5f5f5" stroke-width="1"/>
  <rect x="280" y="382" width="1100" height="40" fill="#fafafa" opacity="0.5"/>
  <text x="310" y="410" font-size="13" fill="#999">henk.devries</text>
  <text x="510" y="410" font-size="13" fill="#999">Henk de Vries</text>
  <text x="710" y="410" font-size="13" fill="#999">TechPartner BV</text>
  <rect x="900" y="396" width="88" height="22" rx="11" fill="#fff3e0"/>
  <text x="908" y="412" font-size="11" fill="#e65100">EMPLOYEE</text>
  <rect x="1060" y="396" width="80" height="22" rx="11" fill="#ffebee"/>
  <text x="1070" y="412" font-size="11" fill="#c62828">Vergrendeld</text>
  <text x="1210" y="412" font-size="14" fill="#1976d2">✎ 🔓 🗑</text>

  <!-- Legend -->
  <text x="310" y="480" font-size="11" fill="#999">Legenda acties: ✎ Bewerken | 🔑 Wachtwoord resetten | 🔓 Ontgrendelen | 🗑 Verwijderen</text>

  <!-- Pagination -->
  <line x1="280" y1="735" x2="1380" y2="735" stroke="#e0e0e0" stroke-width="1"/>
  <text x="310" y="762" font-size="12" fill="#666">Rijen per pagina:</text>
  <rect x="420" y="746" width="50" height="24" rx="4" fill="#ffffff" stroke="#bdbdbd" stroke-width="1"/>
  <text x="438" y="763" font-size="12" fill="#333">10 ▾</text>
  <text x="900" y="762" font-size="12" fill="#666">1 – 4 van 4</text>
</svg>