<svg xmlns="http://www.w3.org/2000/svg" width="1440" height="900" viewBox="0 0 1440 900">
  <defs>
    <style>
      @import url('https://fonts.googleapis.com/css2?family=Roboto:wght@300;400;500&amp;display=swap');
      text { font-family: 'Roboto', sans-serif; }
    </style>
    <filter id="shadow" x="-5%" y="-5%" width="110%" height="115%">
      <feDropShadow dx="0" dy="2" stdDeviation="4" flood-color="#000" flood-opacity="0.12"/>
    </filter>
  </defs>

  <!-- Page label -->
  <rect x="0" y="0" width="1440" height="40" fill="#1976d2"/>
  <text x="720" y="26" text-anchor="middle" font-size="14" font-weight="500" fill="#ffffff">07 - Accommodaties</text>

  <!-- Top Toolbar -->
  <rect x="0" y="40" width="1440" height="56" fill="#1976d2"/>
  <text x="264" y="74" font-size="18" font-weight="500" fill="#ffffff">RDS - Reisburo Dashboard</text>
  <text x="1280" y="74" font-size="14" fill="#ffffffcc">jan.vanbergen</text>

  <!-- Sidebar -->
  <rect x="0" y="96" width="240" height="804" fill="#fafafa"/>
  <line x1="240" y1="96" x2="240" y2="900" stroke="#e0e0e0" stroke-width="1"/>
  <rect x="0" y="96" width="240" height="56" fill="#f5f5f5"/>
  <text x="120" y="130" text-anchor="middle" font-size="20" font-weight="500" fill="#1976d2">RDS</text>
  <text x="56" y="182" font-size="14" fill="#424242">Dashboard</text>
  <text x="56" y="230" font-size="14" fill="#424242">Boekingen</text>
  <text x="56" y="278" font-size="14" fill="#424242">Bookers</text>
  <text x="56" y="326" font-size="14" fill="#424242">Reizigers</text>
  <!-- Active -->
  <rect x="0" y="344" width="240" height="48" fill="#e3f2fd"/>
  <rect x="0" y="344" width="4" height="48" fill="#1976d2"/>
  <text x="56" y="374" font-size="14" font-weight="500" fill="#1976d2">Accommodaties</text>
  <text x="56" y="422" font-size="14" fill="#424242">Leveranciers</text>
  <text x="56" y="470" font-size="14" fill="#424242">Documenten</text>

  <!-- Main Content -->
  <rect x="240" y="96" width="1200" height="804" fill="#fafafa"/>

  <!-- Header -->
  <text x="280" y="140" font-size="22" font-weight="500" fill="#333">Accommodaties</text>
  <rect x="1200" y="116" width="180" height="40" rx="4" fill="#1976d2"/>
  <text x="1290" y="142" text-anchor="middle" font-size="14" font-weight="500" fill="#ffffff">+ NIEUWE ACCOMMODATIE</text>

  <!-- Search -->
  <rect x="280" y="162" width="400" height="44" rx="4" fill="#ffffff" stroke="#bdbdbd" stroke-width="1"/>
  <text x="320" y="190" font-size="14" fill="#999">Zoek op naam of code...</text>

  <!-- Cards grid layout -->
  <!-- Card 1 -->
  <rect x="280" y="224" width="340" height="220" rx="8" fill="#ffffff" filter="url(#shadow)"/>
  <rect x="280" y="224" width="340" height="6" rx="3" fill="#1976d2"/>
  <text x="310" y="264" font-size="16" font-weight="500" fill="#333">Villa Dalmatia</text>
  <text x="310" y="286" font-size="12" fill="#999">Code: ACC-001</text>
  <line x1="300" y1="300" x2="600" y2="300" stroke="#f0f0f0" stroke-width="1"/>
  <text x="310" y="324" font-size="12" fill="#666">Leverancier</text>
  <text x="310" y="344" font-size="13" fill="#333">Adriatic Homes d.o.o.</text>
  <text x="310" y="372" font-size="12" fill="#666">Adres</text>
  <text x="310" y="392" font-size="13" fill="#333">Obala 15, 21000 Split, Kroatie</text>
  <rect x="310" y="412" width="70" height="24" rx="4" fill="transparent" stroke="#1976d2" stroke-width="1"/>
  <text x="325" y="429" font-size="11" font-weight="500" fill="#1976d2">DETAILS</text>
  <rect x="390" y="412" width="80" height="24" rx="4" fill="transparent" stroke="#1976d2" stroke-width="1"/>
  <text x="401" y="429" font-size="11" font-weight="500" fill="#1976d2">BEWERKEN</text>

  <!-- Card 2 -->
  <rect x="640" y="224" width="340" height="220" rx="8" fill="#ffffff" filter="url(#shadow)"/>
  <rect x="640" y="224" width="340" height="6" rx="3" fill="#4caf50"/>
  <text x="670" y="264" font-size="16" font-weight="500" fill="#333">Apartment Split Center</text>
  <text x="670" y="286" font-size="12" fill="#999">Code: ACC-002</text>
  <line x1="660" y1="300" x2="960" y2="300" stroke="#f0f0f0" stroke-width="1"/>
  <text x="670" y="324" font-size="12" fill="#666">Leverancier</text>
  <text x="670" y="344" font-size="13" fill="#333">Split Rentals d.o.o.</text>
  <text x="670" y="372" font-size="12" fill="#666">Adres</text>
  <text x="670" y="392" font-size="13" fill="#333">Marmontova 8, 21000 Split, Kroatie</text>
  <rect x="670" y="412" width="70" height="24" rx="4" fill="transparent" stroke="#1976d2" stroke-width="1"/>
  <text x="685" y="429" font-size="11" font-weight="500" fill="#1976d2">DETAILS</text>
  <rect x="750" y="412" width="80" height="24" rx="4" fill="transparent" stroke="#1976d2" stroke-width="1"/>
  <text x="761" y="429" font-size="11" font-weight="500" fill="#1976d2">BEWERKEN</text>

  <!-- Card 3 -->
  <rect x="1000" y="224" width="340" height="220" rx="8" fill="#ffffff" filter="url(#shadow)"/>
  <rect x="1000" y="224" width="340" height="6" rx="3" fill="#ff9800"/>
  <text x="1030" y="264" font-size="16" font-weight="500" fill="#333">Hotel Dubrovnik Palace</text>
  <text x="1030" y="286" font-size="12" fill="#999">Code: ACC-003</text>
  <line x1="1020" y1="300" x2="1320" y2="300" stroke="#f0f0f0" stroke-width="1"/>
  <text x="1030" y="324" font-size="12" fill="#666">Leverancier</text>
  <text x="1030" y="344" font-size="13" fill="#333">Dubrovnik Hotels Group</text>
  <text x="1030" y="372" font-size="12" fill="#666">Adres</text>
  <text x="1030" y="392" font-size="13" fill="#333">Masarykov put 20, 20000 Dubrovnik</text>
  <rect x="1030" y="412" width="70" height="24" rx="4" fill="transparent" stroke="#1976d2" stroke-width="1"/>
  <text x="1045" y="429" font-size="11" font-weight="500" fill="#1976d2">DETAILS</text>
  <rect x="1110" y="412" width="80" height="24" rx="4" fill="transparent" stroke="#1976d2" stroke-width="1"/>
  <text x="1121" y="429" font-size="11" font-weight="500" fill="#1976d2">BEWERKEN</text>

  <!-- Card 4 -->
  <rect x="280" y="464" width="340" height="220" rx="8" fill="#ffffff" filter="url(#shadow)"/>
  <rect x="280" y="464" width="340" height="6" rx="3" fill="#9c27b0"/>
  <text x="310" y="504" font-size="16" font-weight="500" fill="#333">Plitvice Lodge</text>
  <text x="310" y="526" font-size="12" fill="#999">Code: ACC-004</text>
  <line x1="300" y1="540" x2="600" y2="540" stroke="#f0f0f0" stroke-width="1"/>
  <text x="310" y="564" font-size="12" fill="#666">Leverancier</text>
  <text x="310" y="584" font-size="13" fill="#333">Nature Retreats HR</text>
  <text x="310" y="612" font-size="12" fill="#666">Adres</text>
  <text x="310" y="632" font-size="13" fill="#333">Jezerce 1, 53231 Plitvice, Kroatie</text>
  <rect x="310" y="652" width="70" height="24" rx="4" fill="transparent" stroke="#1976d2" stroke-width="1"/>
  <text x="325" y="669" font-size="11" font-weight="500" fill="#1976d2">DETAILS</text>

  <!-- Card 5 -->
  <rect x="640" y="464" width="340" height="220" rx="8" fill="#ffffff" filter="url(#shadow)"/>
  <rect x="640" y="464" width="340" height="6" rx="3" fill="#00bcd4"/>
  <text x="670" y="504" font-size="16" font-weight="500" fill="#333">Istria Beach Resort</text>
  <text x="670" y="526" font-size="12" fill="#999">Code: ACC-005</text>
  <line x1="660" y1="540" x2="960" y2="540" stroke="#f0f0f0" stroke-width="1"/>
  <text x="670" y="564" font-size="12" fill="#666">Leverancier</text>
  <text x="670" y="584" font-size="13" fill="#333">Istria Vacation Homes</text>
  <text x="670" y="612" font-size="12" fill="#666">Adres</text>
  <text x="670" y="632" font-size="13" fill="#333">Porec Marina 5, 52440 Porec, Kroatie</text>
  <rect x="670" y="652" width="70" height="24" rx="4" fill="transparent" stroke="#1976d2" stroke-width="1"/>
  <text x="685" y="669" font-size="11" font-weight="500" fill="#1976d2">DETAILS</text>

  <!-- Pagination -->
  <text x="280" y="730" font-size="12" fill="#666">5 accommodaties gevonden</text>
</svg>