<svg xmlns="http://www.w3.org/2000/svg" width="1440" height="900" viewBox="0 0 1440 900">
  <defs>
    <style>
      @import url('https://fonts.googleapis.com/css2?family=Roboto:wght@300;400;500&amp;display=swap');
      text { font-family: 'Roboto', sans-serif; }
    </style>
    <filter id="shadow" x="-5%" y="-5%" width="110%" height="115%">
      <feDropShadow dx="0" dy="2" stdDeviation="4" flood-color="#000" flood-opacity="0.12"/>
    </filter>
  </defs>

  <!-- Page label -->
  <rect x="0" y="0" width="1440" height="40" fill="#1976d2"/>
  <text x="720" y="26" text-anchor="middle" font-size="14" font-weight="500" fill="#ffffff">08 - Mollie Betalingen</text>

  <!-- Top Toolbar -->
  <rect x="0" y="40" width="1440" height="56" fill="#1976d2"/>
  <text x="264" y="74" font-size="18" font-weight="500" fill="#ffffff">RDS - Reisburo Dashboard</text>
  <text x="1280" y="74" font-size="14" fill="#ffffffcc">jan.vanbergen</text>

  <!-- Sidebar (abbreviated) -->
  <rect x="0" y="96" width="240" height="804" fill="#fafafa"/>
  <line x1="240" y1="96" x2="240" y2="900" stroke="#e0e0e0" stroke-width="1"/>
  <rect x="0" y="96" width="240" height="56" fill="#f5f5f5"/>
  <text x="120" y="130" text-anchor="middle" font-size="20" font-weight="500" fill="#1976d2">RDS</text>
  <text x="56" y="182" font-size="14" fill="#424242">Dashboard</text>
  <text x="56" y="230" font-size="14" fill="#424242">Boekingen</text>
  <text x="56" y="278" font-size="14" fill="#424242">Bookers</text>
  <text x="56" y="326" font-size="14" fill="#424242">Reizigers</text>
  <text x="56" y="374" font-size="14" fill="#424242">Accommodaties</text>
  <text x="56" y="422" font-size="14" fill="#424242">Leveranciers</text>
  <text x="56" y="470" font-size="14" fill="#424242">Documenten</text>

  <!-- Main Content -->
  <rect x="240" y="96" width="1200" height="804" fill="#fafafa"/>

  <!-- Breadcrumb: Boeking > Betalingen -->
  <text x="280" y="126" font-size="13" fill="#1976d2">Boeking BK-2026-001</text>
  <text x="430" y="126" font-size="13" fill="#999"> / Betalingen</text>

  <text x="280" y="164" font-size="22" font-weight="500" fill="#333">Betalingen — BK-2026-001</text>

  <!-- Summary cards -->
  <rect x="280" y="184" width="220" height="100" rx="8" fill="#ffffff" filter="url(#shadow)"/>
  <text x="310" y="218" font-size="12" fill="#666">Totaal boeking</text>
  <text x="310" y="252" font-size="28" font-weight="300" fill="#333">€ 2.450</text>

  <rect x="520" y="184" width="220" height="100" rx="8" fill="#ffffff" filter="url(#shadow)"/>
  <text x="550" y="218" font-size="12" fill="#666">Betaald</text>
  <text x="550" y="252" font-size="28" font-weight="300" fill="#4caf50">€ 1.225</text>

  <rect x="760" y="184" width="220" height="100" rx="8" fill="#ffffff" filter="url(#shadow)"/>
  <text x="790" y="218" font-size="12" fill="#666">Openstaand</text>
  <text x="790" y="252" font-size="28" font-weight="300" fill="#ff9800">€ 1.225</text>

  <!-- New payment button -->
  <rect x="1160" y="210" width="220" height="48" rx="4" fill="#1976d2"/>
  <text x="1270" y="240" text-anchor="middle" font-size="14" font-weight="500" fill="#ffffff">+ NIEUWE BETALING</text>

  <!-- Payments table -->
  <rect x="280" y="310" width="1100" height="440" rx="8" fill="#ffffff" filter="url(#shadow)"/>

  <!-- Table header -->
  <rect x="280" y="310" width="1100" height="42" rx="8" fill="#fafafa"/>
  <rect x="280" y="342" width="1100" height="10" fill="#fafafa"/>
  <text x="310" y="338" font-size="12" font-weight="500" fill="#666">MOLLIE ID</text>
  <text x="460" y="338" font-size="12" font-weight="500" fill="#666">DATUM</text>
  <text x="600" y="338" font-size="12" font-weight="500" fill="#666">OMSCHRIJVING</text>
  <text x="820" y="338" font-size="12" font-weight="500" fill="#666">METHODE</text>
  <text x="960" y="338" font-size="12" font-weight="500" fill="#666">BEDRAG</text>
  <text x="1080" y="338" font-size="12" font-weight="500" fill="#666">STATUS</text>
  <text x="1240" y="338" font-size="12" font-weight="500" fill="#666">ACTIES</text>

  <!-- Row 1: Paid -->
  <line x1="280" y1="352" x2="1380" y2="352" stroke="#e0e0e0" stroke-width="1"/>
  <text x="310" y="380" font-size="13" fill="#1976d2">tr_WDqYK6vllg</text>
  <text x="460" y="380" font-size="13" fill="#333">25-03-2026</text>
  <text x="600" y="380" font-size="13" fill="#333">Aanbetaling boeking BK-2026-001</text>
  <rect x="820" y="366" width="60" height="22" rx="4" fill="#f5f5f5"/>
  <text x="834" y="382" font-size="11" fill="#333">iDEAL</text>
  <text x="960" y="380" font-size="13" font-weight="500" fill="#333">€ 1.225,00</text>
  <rect x="1080" y="366" width="60" height="22" rx="11" fill="#e8f5e9"/>
  <text x="1094" y="382" font-size="11" fill="#2e7d32">PAID</text>
  <text x="1250" y="382" font-size="14" fill="#666">👁</text>

  <!-- Row 2: Open -->
  <line x1="280" y1="392" x2="1380" y2="392" stroke="#f5f5f5" stroke-width="1"/>
  <rect x="280" y="392" width="1100" height="40" fill="#fafafa" opacity="0.5"/>
  <text x="310" y="420" font-size="13" fill="#1976d2">tr_7UhSN1zuXs</text>
  <text x="460" y="420" font-size="13" fill="#333">27-03-2026</text>
  <text x="600" y="420" font-size="13" fill="#333">Restbetaling boeking BK-2026-001</text>
  <rect x="820" y="406" width="60" height="22" rx="4" fill="#f5f5f5"/>
  <text x="844" y="422" font-size="11" fill="#999">—</text>
  <text x="960" y="420" font-size="13" font-weight="500" fill="#333">€ 1.225,00</text>
  <rect x="1080" y="406" width="60" height="22" rx="11" fill="#fff3e0"/>
  <text x="1094" y="422" font-size="11" fill="#e65100">OPEN</text>
  <text x="1240" y="422" font-size="14" fill="#1976d2">👁 📋 🗑</text>

  <!-- Row 3: Failed -->
  <line x1="280" y1="432" x2="1380" y2="432" stroke="#f5f5f5" stroke-width="1"/>
  <text x="310" y="460" font-size="13" fill="#999">tr_K4bma2QLP1</text>
  <text x="460" y="460" font-size="13" fill="#999">20-03-2026</text>
  <text x="600" y="460" font-size="13" fill="#999">Aanbetaling (mislukt)</text>
  <rect x="820" y="446" width="80" height="22" rx="4" fill="#f5f5f5"/>
  <text x="828" y="462" font-size="11" fill="#999">Creditcard</text>
  <text x="960" y="460" font-size="13" fill="#999">€ 1.225,00</text>
  <rect x="1080" y="446" width="60" height="22" rx="11" fill="#ffebee"/>
  <text x="1090" y="462" font-size="11" fill="#c62828">FAILED</text>
  <text x="1250" y="462" font-size="14" fill="#666">👁</text>

  <!-- Legend -->
  <line x1="280" y1="510" x2="1380" y2="510" stroke="#e0e0e0" stroke-width="1"/>
  <text x="310" y="536" font-size="11" fill="#999">Acties: 👁 Details | 📋 Kopieer betaallink | 🗑 Verwijderen</text>

  <!-- Payment status legend -->
  <text x="310" y="570" font-size="11" fill="#999">Statussen:</text>
  <rect x="376" y="556" width="50" height="20" rx="10" fill="#fff3e0"/>
  <text x="386" y="570" font-size="10" fill="#e65100">OPEN</text>
  <rect x="436" y="556" width="65" height="20" rx="10" fill="#e8eaf6"/>
  <text x="446" y="570" font-size="10" fill="#283593">PENDING</text>
  <rect x="511" y="556" width="50" height="20" rx="10" fill="#e8f5e9"/>
  <text x="521" y="570" font-size="10" fill="#2e7d32">PAID</text>
  <rect x="571" y="556" width="55" height="20" rx="10" fill="#ffebee"/>
  <text x="581" y="570" font-size="10" fill="#c62828">FAILED</text>
  <rect x="636" y="556" width="70" height="20" rx="10" fill="#f3e5f5"/>
  <text x="646" y="570" font-size="10" fill="#6a1b9a">CANCELED</text>
  <rect x="716" y="556" width="65" height="20" rx="10" fill="#efebe9"/>
  <text x="726" y="570" font-size="10" fill="#4e342e">EXPIRED</text>
</svg>